<svg id="Слой_1" data-name="Слой 1" xmlns="http://www.w3.org/2000/svg" viewBox="0 0 577.12 130.5"><defs><style>.cls-1,.cls-5{fill:#0000c5;}.cls-2{fill:#e6e6e6;}.cls-3{fill:#cacaca;}.cls-4{fill:#b5b5b5;}.cls-5{opacity:0.5;}</style></defs><path class="cls-1" d="M532.32,546.44h25.2v71.4q0,14.7-6.65,21.35t-21.35,6.65h-32.2q-14.7,0-21.35-6.65t-6.65-21.35v-71.4h25.2v71.4q0,8.4,8.4,8.4h21q8.4,0,8.4-8.4Z" transform="translate(-271.6 -515.34)"/><path class="cls-1" d="M659.72,644.44h-26.6l-33.6-58.8v58.8h-25.2v-98h26.6l33.6,58.8v-58.8h25.2Z" transform="translate(-271.6 -515.34)"/><path class="cls-1" d="M752.12,643q-31.22,2.81-51.8,2.8-13.73,0-20.16-6.44t-6.44-20.16v-44.8q0-14.7,6.65-21.35t21.35-6.65h50.4V566h-44.8q-8.4,0-8.4,8.4v44.8a6.9,6.9,0,0,0,1.89,5.11,6.54,6.54,0,0,0,4.83,1.89q2.94,0,6.44-.07c2.34,0,4.76-.11,7.28-.21l7.63-.28q3.85-.13,9.94-.56t15.19-1Z" transform="translate(-271.6 -515.34)"/><path class="cls-1" d="M848.72,644.44h-25.2v-39.9h-35v39.9h-25.2v-98h25.2v38.5h35v-38.5h25.2Z" transform="translate(-271.6 -515.34)"/><path class="cls-1" d="M296.8,624.84h51.1v19.6H271.6v-98h25.2Z" transform="translate(-271.6 -515.34)"/><polygon class="cls-2" points="90.47 86.17 124.03 90.88 149.11 0 119.79 43.08 90.47 86.17"/><polygon class="cls-3" points="137.02 86 149.11 0 124.03 90.88 137.02 86"/><polyline class="cls-2" points="149.11 0 181.68 99.3 165.42 49.5 149.11 0.01 148.21 93.97 148.23 93.83 148.21 93.97 181.68 99.3"/><polygon class="cls-4" points="149.11 0 137.02 86 148.21 93.97 149.11 0"/><path class="cls-5" d="M431,644.44c-10.38-7.75-22.42-21.33-22.68-40.48a.38.38,0,0,0-.75-.1c-8.27,28.93-42.55,40.57-42.55,40.57Z" transform="translate(-271.6 -515.34)"/></svg>