<svg id="Слой_1" data-name="Слой 1" xmlns="http://www.w3.org/2000/svg" xmlns:xlink="http://www.w3.org/1999/xlink" viewBox="0 0 598.52 158.06"><defs><style>.cls-1{font-size:140px;font-family:RussoOne-Regular, Russo One;}.cls-1,.cls-2{fill:#0000c5;}.cls-3{fill:url(#Безымянный_градиент_38);}</style><radialGradient id="Безымянный_градиент_38" cx="448.04" cy="647.18" r="41.7" gradientUnits="userSpaceOnUse"><stop offset="0" stop-color="#ffcc60"/><stop offset="0.15" stop-color="#ffc85f"/><stop offset="0.29" stop-color="#ffbd5d"/><stop offset="0.42" stop-color="#ffaa5a"/><stop offset="0.55" stop-color="#fe9055"/><stop offset="0.68" stop-color="#fe6e4f"/><stop offset="0.81" stop-color="#fe4447"/><stop offset="0.94" stop-color="#fd143f"/><stop offset="0.98" stop-color="#fd003b"/></radialGradient></defs><text class="cls-1" transform="translate(202.32 119)">UNCH</text><text class="cls-1" transform="translate(0 119)">L</text><polygon class="cls-2" points="133.34 1.17 96.34 99.17 123.34 99.17 147.34 30.17 171.34 99.17 198.34 99.17 161.34 1.17 133.34 1.17"/><path class="cls-3" d="M439.67,611.24h0a12.91,12.91,0,0,0-3.23,15.64l9.92,19.89a1.88,1.88,0,0,0,3.36,0l10-19.91a12.88,12.88,0,0,0-3.2-15.64h0A13.08,13.08,0,0,0,439.67,611.24Z" transform="translate(-300.74 -520.97)"/></svg>